<svg xmlns="http://www.w3.org/2000/svg" xmlns:xlink="http://www.w3.org/1999/xlink" width="1024" zoomAndPan="magnify" viewBox="0 0 768 767.999994" height="1024" preserveAspectRatio="xMidYMid meet" version="1.0"><defs><g/><clipPath id="abbb9639b9"><path d="M 181 109 L 540 109 L 540 570.726562 L 181 570.726562 Z M 181 109 " clip-rule="nonzero"/></clipPath><clipPath id="3e09356ddc"><path d="M 376.1875 339.945312 L 430.183594 339.945312 L 430.183594 503.984375 L 376.1875 503.984375 Z M 376.1875 339.945312 " clip-rule="nonzero"/></clipPath></defs><g clip-path="url(#abbb9639b9)"><path fill="#114488" d="M 525.363281 456.75 C 513.207031 450.1875 498.03125 454.71875 491.464844 466.875 C 473.546875 500.054688 439.015625 520.664062 401.351562 520.664062 C 344.925781 520.664062 299.019531 474.757812 299.019531 418.332031 C 299.019531 361.910156 344.925781 316.003906 401.351562 316.003906 C 439.714844 316.003906 474.539062 337.171875 492.238281 371.253906 C 498.605469 383.515625 513.707031 388.292969 525.96875 381.925781 C 538.226562 375.558594 543.003906 360.457031 536.636719 348.199219 C 523.980469 323.824219 504.941406 303.28125 481.578125 288.785156 C 457.523438 273.863281 429.78125 265.972656 401.351562 265.972656 C 380.792969 265.972656 360.839844 270.003906 342.039062 277.957031 C 342.023438 277.964844 342.007812 277.972656 341.992188 277.976562 L 334.550781 133.367188 C 333.84375 119.570312 322.085938 108.96875 308.285156 109.671875 C 294.488281 110.382812 283.878906 122.140625 284.589844 135.9375 L 291.617188 272.523438 C 291.707031 274.289062 289.175781 274.683594 288.726562 272.972656 L 261.589844 169.941406 C 258.070312 156.582031 244.386719 148.601562 231.027344 152.121094 C 217.667969 155.640625 209.691406 169.324219 213.210938 182.683594 L 247.648438 313.4375 C 248.105469 315.171875 245.652344 316.058594 244.894531 314.433594 L 229.027344 280.414062 C 223.1875 267.894531 208.304688 262.480469 195.78125 268.320312 C 183.261719 274.15625 177.847656 289.042969 183.6875 301.5625 L 251.792969 447.582031 C 253.792969 457.863281 256.855469 467.910156 260.972656 477.648438 C 268.648438 495.792969 279.632812 512.085938 293.617188 526.070312 C 307.601562 540.054688 323.890625 551.035156 342.039062 558.710938 C 360.839844 566.660156 380.792969 570.695312 401.351562 570.695312 C 457.421875 570.695312 508.820312 540.023438 535.484375 490.648438 C 542.050781 478.492188 537.515625 463.316406 525.363281 456.75 Z M 525.363281 456.75 " fill-opacity="1" fill-rule="nonzero"/></g><g clip-path="url(#3e09356ddc)"><path fill="#181919" d="M 394.769531 366.113281 L 376.246094 470.082031 C 376.011719 471.738281 376.464844 473.421875 377.5 474.738281 L 398.945312 501.925781 C 401.109375 504.671875 405.261719 504.671875 407.425781 501.925781 L 428.871094 474.738281 C 429.90625 473.421875 430.359375 471.738281 430.125 470.082031 L 411.601562 366.09375 C 411.578125 365.84375 411.597656 365.589844 411.667969 365.359375 L 425.234375 341.871094 C 425.621094 340.957031 424.949219 339.945312 423.960938 339.945312 L 381.636719 339.945312 C 380.632812 339.945312 379.960938 340.984375 380.375 341.90625 L 394.691406 365.34375 C 394.769531 365.585938 394.792969 365.851562 394.769531 366.113281 " fill-opacity="1" fill-rule="nonzero"/></g><g fill="#114488" fill-opacity="1"><g transform="translate(131.571661, 652.340077)"><g><path d="M 42 -16.921875 C 42 -10.835938 40.265625 -6.351562 36.796875 -3.46875 C 33.328125 -0.59375 28.332031 0.84375 21.8125 0.84375 C 15.300781 0.84375 10.304688 -0.59375 6.828125 -3.46875 C 3.359375 -6.351562 1.625 -10.835938 1.625 -16.921875 L 1.625 -17.5625 L 16.296875 -17.5625 L 16.296875 -17 C 16.296875 -14.78125 16.707031 -13.195312 17.53125 -12.25 C 18.351562 -11.3125 19.613281 -10.84375 21.3125 -10.84375 C 23.019531 -10.84375 24.285156 -11.3125 25.109375 -12.25 C 25.929688 -13.195312 26.34375 -14.78125 26.34375 -17 L 26.34375 -48.734375 L 42 -48.734375 Z M 42 -16.921875 "/></g></g></g><g fill="#114488" fill-opacity="1"><g transform="translate(185.398901, 652.340077)"><g><path d="M 31.375 0 L 30.453125 -5.671875 C 28.992188 -3.640625 27.070312 -2.046875 24.6875 -0.890625 C 22.300781 0.265625 19.785156 0.84375 17.140625 0.84375 C 12.796875 0.84375 9.535156 -0.359375 7.359375 -2.765625 C 5.191406 -5.171875 4.109375 -8.640625 4.109375 -13.171875 L 4.109375 -37.390625 L 18.203125 -37.390625 L 18.203125 -14.875 C 18.203125 -13.269531 18.613281 -11.984375 19.4375 -11.015625 C 20.269531 -10.046875 21.441406 -9.5625 22.953125 -9.5625 C 24.691406 -9.5625 26.101562 -10.128906 27.1875 -11.265625 C 28.28125 -12.398438 28.828125 -13.789062 28.828125 -15.4375 L 28.828125 -37.390625 L 42.921875 -37.390625 L 42.921875 0 Z M 31.375 0 "/></g></g></g><g fill="#114488" fill-opacity="1"><g transform="translate(239.226141, 652.340077)"><g><path d="M 22.734375 -38.25 C 28.453125 -38.25 33.101562 -37.289062 36.6875 -35.375 C 40.28125 -33.46875 42.078125 -30.363281 42.078125 -26.0625 L 42.078125 -11.46875 C 42.078125 -10.664062 42.265625 -10.003906 42.640625 -9.484375 C 43.015625 -8.972656 43.582031 -8.71875 44.34375 -8.71875 L 46.890625 -8.71875 L 46.890625 -0.5625 C 46.742188 -0.46875 46.375 -0.3125 45.78125 -0.09375 C 45.195312 0.113281 44.359375 0.320312 43.265625 0.53125 C 42.179688 0.738281 40.929688 0.84375 39.515625 0.84375 C 36.785156 0.84375 34.535156 0.429688 32.765625 -0.390625 C 30.992188 -1.210938 29.773438 -2.359375 29.109375 -3.828125 C 27.316406 -2.410156 25.3125 -1.273438 23.09375 -0.421875 C 20.875 0.421875 18.273438 0.84375 15.296875 0.84375 C 6.515625 0.84375 2.125 -2.644531 2.125 -9.625 C 2.125 -13.269531 3.101562 -16.046875 5.0625 -17.953125 C 7.019531 -19.867188 9.835938 -21.179688 13.515625 -21.890625 C 17.203125 -22.597656 22.023438 -22.953125 27.984375 -22.953125 L 27.984375 -24.796875 C 27.984375 -26.253906 27.472656 -27.359375 26.453125 -28.109375 C 25.441406 -28.867188 24.128906 -29.25 22.515625 -29.25 C 21.054688 -29.25 19.796875 -28.988281 18.734375 -28.46875 C 17.671875 -27.945312 17.140625 -27.125 17.140625 -26 L 17.140625 -25.703125 L 3.265625 -25.703125 C 3.210938 -25.941406 3.1875 -26.273438 3.1875 -26.703125 C 3.1875 -30.242188 4.875 -33.050781 8.25 -35.125 C 11.625 -37.207031 16.453125 -38.25 22.734375 -38.25 Z M 27.984375 -16.296875 C 23.960938 -16.296875 20.992188 -15.859375 19.078125 -14.984375 C 17.171875 -14.109375 16.21875 -12.9375 16.21875 -11.46875 C 16.21875 -9.113281 17.820312 -7.9375 21.03125 -7.9375 C 22.875 -7.9375 24.492188 -8.429688 25.890625 -9.421875 C 27.285156 -10.410156 27.984375 -11.640625 27.984375 -13.109375 Z M 27.984375 -16.296875 "/></g></g></g><g fill="#114488" fill-opacity="1"><g transform="translate(293.05338, 652.340077)"><g><path d="M 30.03125 -38.25 C 34.375 -38.25 37.628906 -37.039062 39.796875 -34.625 C 41.972656 -32.21875 43.0625 -28.75 43.0625 -24.21875 L 43.0625 0 L 28.96875 0 L 28.96875 -22.515625 C 28.96875 -24.128906 28.550781 -25.414062 27.71875 -26.375 C 26.894531 -27.34375 25.726562 -27.828125 24.21875 -27.828125 C 22.476562 -27.828125 21.0625 -27.257812 19.96875 -26.125 C 18.882812 -25 18.34375 -23.609375 18.34375 -21.953125 L 18.34375 0 L 4.25 0 L 4.25 -37.390625 L 15.796875 -37.390625 L 16.71875 -31.734375 C 18.175781 -33.710938 20.097656 -35.289062 22.484375 -36.46875 C 24.867188 -37.65625 27.382812 -38.25 30.03125 -38.25 Z M 30.03125 -38.25 "/></g></g></g><g fill="#114488" fill-opacity="1"><g transform="translate(346.88062, 652.340077)"><g><path d="M 42 -16.921875 C 42 -10.835938 40.265625 -6.351562 36.796875 -3.46875 C 33.328125 -0.59375 28.332031 0.84375 21.8125 0.84375 C 15.300781 0.84375 10.304688 -0.59375 6.828125 -3.46875 C 3.359375 -6.351562 1.625 -10.835938 1.625 -16.921875 L 1.625 -17.5625 L 16.296875 -17.5625 L 16.296875 -17 C 16.296875 -14.78125 16.707031 -13.195312 17.53125 -12.25 C 18.351562 -11.3125 19.613281 -10.84375 21.3125 -10.84375 C 23.019531 -10.84375 24.285156 -11.3125 25.109375 -12.25 C 25.929688 -13.195312 26.34375 -14.78125 26.34375 -17 L 26.34375 -48.734375 L 42 -48.734375 Z M 42 -16.921875 "/></g></g></g><g fill="#114488" fill-opacity="1"><g transform="translate(400.70786, 652.340077)"><g><path d="M 23.578125 -38.25 C 30.148438 -38.25 35.3125 -36.582031 39.0625 -33.25 C 42.8125 -29.925781 44.6875 -25.078125 44.6875 -18.703125 C 44.6875 -12.328125 42.8125 -7.472656 39.0625 -4.140625 C 35.3125 -0.816406 30.148438 0.84375 23.578125 0.84375 C 17.015625 0.84375 11.867188 -0.804688 8.140625 -4.109375 C 4.410156 -7.410156 2.546875 -12.273438 2.546875 -18.703125 C 2.546875 -25.117188 4.410156 -29.976562 8.140625 -33.28125 C 11.867188 -36.59375 17.015625 -38.25 23.578125 -38.25 Z M 23.578125 -28.6875 C 18.953125 -28.6875 16.640625 -26.019531 16.640625 -20.6875 L 16.640625 -16.640625 C 16.640625 -11.359375 18.953125 -8.71875 23.578125 -8.71875 C 28.253906 -8.71875 30.59375 -11.359375 30.59375 -16.640625 L 30.59375 -20.6875 C 30.59375 -26.019531 28.253906 -28.6875 23.578125 -28.6875 Z M 23.578125 -28.6875 "/></g></g></g><g fill="#114488" fill-opacity="1"><g transform="translate(454.535099, 652.340077)"><g><path d="M 18.421875 -33.921875 C 21.109375 -36.804688 24.597656 -38.25 28.890625 -38.25 C 33.941406 -38.25 37.835938 -36.609375 40.578125 -33.328125 C 43.316406 -30.046875 44.6875 -25.191406 44.6875 -18.765625 C 44.6875 -12.296875 43.316406 -7.410156 40.578125 -4.109375 C 37.835938 -0.804688 33.941406 0.84375 28.890625 0.84375 C 23.703125 0.84375 19.738281 -1.207031 17 -5.3125 L 15.796875 0 L 4.328125 0 L 4.328125 -51.34375 L 18.421875 -51.34375 Z M 24.5 -27.828125 C 22.425781 -27.828125 20.867188 -27.082031 19.828125 -25.59375 C 18.796875 -24.113281 18.28125 -22.191406 18.28125 -19.828125 L 18.28125 -17.5 C 18.28125 -15.132812 18.796875 -13.21875 19.828125 -11.75 C 20.867188 -10.289062 22.425781 -9.5625 24.5 -9.5625 C 28.5625 -9.5625 30.59375 -11.96875 30.59375 -16.78125 L 30.59375 -20.546875 C 30.59375 -25.398438 28.5625 -27.828125 24.5 -27.828125 Z M 24.5 -27.828125 "/></g></g></g><g fill="#114488" fill-opacity="1"><g transform="translate(508.362339, 652.340077)"><g><path d="M 22.03125 -38.25 C 27.03125 -38.25 31.265625 -37.269531 34.734375 -35.3125 C 38.210938 -33.351562 39.953125 -30.316406 39.953125 -26.203125 L 26.84375 -26.203125 C 26.84375 -27.578125 26.226562 -28.546875 25 -29.109375 C 24.15625 -29.578125 23.09375 -29.8125 21.8125 -29.8125 C 18.414062 -29.8125 16.71875 -29.007812 16.71875 -27.40625 C 16.71875 -26.507812 17.304688 -25.875 18.484375 -25.5 C 19.660156 -25.125 21.597656 -24.722656 24.296875 -24.296875 C 27.597656 -23.816406 30.359375 -23.257812 32.578125 -22.625 C 34.796875 -21.988281 36.734375 -20.851562 38.390625 -19.21875 C 40.046875 -17.59375 40.875 -15.316406 40.875 -12.390625 C 40.875 -7.617188 39.085938 -4.21875 35.515625 -2.1875 C 31.953125 -0.164062 27.289062 0.84375 21.53125 0.84375 C 18.226562 0.84375 15.113281 0.382812 12.1875 -0.53125 C 9.257812 -1.445312 6.875 -2.875 5.03125 -4.8125 C 3.1875 -6.75 2.265625 -9.207031 2.265625 -12.1875 L 15.375 -12.1875 L 15.375 -11.90625 C 15.414062 -10.289062 16.085938 -9.164062 17.390625 -8.53125 C 18.691406 -7.894531 20.070312 -7.578125 21.53125 -7.578125 C 25.445312 -7.578125 27.40625 -8.5 27.40625 -10.34375 C 27.40625 -11.28125 26.789062 -11.960938 25.5625 -12.390625 C 24.34375 -12.816406 22.335938 -13.265625 19.546875 -13.734375 C 16.191406 -14.304688 13.441406 -14.921875 11.296875 -15.578125 C 9.148438 -16.242188 7.273438 -17.363281 5.671875 -18.9375 C 4.066406 -20.519531 3.265625 -22.726562 3.265625 -25.5625 C 3.265625 -30.144531 5 -33.40625 8.46875 -35.34375 C 11.9375 -37.28125 16.457031 -38.25 22.03125 -38.25 Z M 22.03125 -38.25 "/></g></g></g><g fill="#114488" fill-opacity="1"><g transform="translate(558.223439, 652.340077)"><g><path d="M 32.578125 -48.734375 C 35.597656 -48.734375 38.289062 -48.035156 40.65625 -46.640625 C 43.019531 -45.242188 44.859375 -43.328125 46.171875 -40.890625 C 47.492188 -38.460938 48.15625 -35.738281 48.15625 -32.71875 L 48.15625 -31.796875 C 48.15625 -28.773438 47.492188 -26.035156 46.171875 -23.578125 C 44.859375 -21.128906 43.019531 -19.207031 40.65625 -17.8125 C 38.289062 -16.414062 35.597656 -15.71875 32.578125 -15.71875 L 20.890625 -15.71875 L 20.890625 0 L 5.234375 0 L 5.234375 -48.734375 Z M 20.890625 -27.125 L 27.34375 -27.125 C 28.988281 -27.125 30.222656 -27.546875 31.046875 -28.390625 C 31.878906 -29.242188 32.296875 -30.40625 32.296875 -31.875 L 32.296875 -32.4375 C 32.296875 -33.945312 31.878906 -35.113281 31.046875 -35.9375 C 30.222656 -36.769531 28.988281 -37.1875 27.34375 -37.1875 L 20.890625 -37.1875 Z M 20.890625 -27.125 "/></g></g></g><g fill="#114488" fill-opacity="1"><g transform="translate(615.946015, 652.340077)"><g><path d="M 38.109375 0 L 38.109375 -18.484375 L 20.890625 -18.484375 L 20.890625 0 L 5.234375 0 L 5.234375 -48.734375 L 20.890625 -48.734375 L 20.890625 -30.953125 L 38.109375 -30.953125 L 38.109375 -48.734375 L 53.765625 -48.734375 L 53.765625 0 Z M 38.109375 0 "/></g></g></g><g fill="#474947" fill-opacity="1"><g transform="translate(196.251659, 695.348075)"><g><path d="M 11.734375 0 L 5.375 -12.46875 L 5.375 0 L 1.890625 0 L 1.890625 -17.453125 L 6.5 -17.453125 L 12.421875 -5.6875 L 12.421875 -17.453125 L 15.921875 -17.453125 L 15.921875 0 Z M 11.734375 0 "/></g></g></g><g fill="#474947" fill-opacity="1"><g transform="translate(214.043487, 695.348075)"><g><path d="M 13.84375 -6.578125 C 13.84375 -4.378906 13.332031 -2.664062 12.3125 -1.4375 C 11.300781 -0.21875 9.703125 0.390625 7.515625 0.390625 C 3.273438 0.390625 1.15625 -1.929688 1.15625 -6.578125 C 1.15625 -8.816406 1.664062 -10.546875 2.6875 -11.765625 C 3.707031 -12.992188 5.316406 -13.609375 7.515625 -13.609375 C 9.703125 -13.609375 11.300781 -12.992188 12.3125 -11.765625 C 13.332031 -10.546875 13.84375 -8.816406 13.84375 -6.578125 Z M 10.484375 -6.578125 C 10.484375 -8.035156 10.253906 -9.097656 9.796875 -9.765625 C 9.347656 -10.429688 8.585938 -10.765625 7.515625 -10.765625 C 6.453125 -10.765625 5.6875 -10.421875 5.21875 -9.734375 C 4.75 -9.054688 4.515625 -8.003906 4.515625 -6.578125 C 4.515625 -5.171875 4.75 -4.128906 5.21875 -3.453125 C 5.6875 -2.785156 6.453125 -2.453125 7.515625 -2.453125 C 8.566406 -2.453125 9.320312 -2.78125 9.78125 -3.4375 C 10.25 -4.101562 10.484375 -5.148438 10.484375 -6.578125 Z M 10.484375 -6.578125 "/></g></g></g><g fill="#474947" fill-opacity="1"><g transform="translate(229.048642, 695.348075)"><g><path d="M 5.734375 -1.828125 C 5.734375 -1.109375 5.566406 -0.59375 5.234375 -0.28125 C 4.910156 0.0195312 4.390625 0.171875 3.671875 0.171875 C 2.878906 0.171875 2.335938 0 2.046875 -0.34375 C 1.765625 -0.6875 1.625 -1.179688 1.625 -1.828125 C 1.625 -2.515625 1.773438 -3.019531 2.078125 -3.34375 C 2.378906 -3.675781 2.910156 -3.84375 3.671875 -3.84375 C 4.441406 -3.84375 4.976562 -3.679688 5.28125 -3.359375 C 5.582031 -3.046875 5.734375 -2.535156 5.734375 -1.828125 Z M 5.734375 -1.828125 "/></g></g></g><g fill="#474947" fill-opacity="1"><g transform="translate(236.412517, 695.348075)"><g/></g></g><g fill="#474947" fill-opacity="1"><g transform="translate(242.616329, 695.348075)"><g><path d="M 7.359375 0 L 7.359375 -11.703125 L 3.125 -11.703125 L 3.125 -14.09375 C 4.332031 -14.175781 5.242188 -14.320312 5.859375 -14.53125 C 6.484375 -14.75 6.976562 -15.082031 7.34375 -15.53125 C 7.707031 -15.988281 7.992188 -16.628906 8.203125 -17.453125 L 10.921875 -17.453125 L 10.921875 0 Z M 7.359375 0 "/></g></g></g><g fill="#474947" fill-opacity="1"><g transform="translate(258.756329, 695.348075)"><g/></g></g><g fill="#474947" fill-opacity="1"><g transform="translate(264.960141, 695.348075)"><g><path d="M 11.703125 0 L 7.25 -6.609375 L 5.453125 -6.609375 L 5.453125 0 L 1.890625 0 L 1.890625 -17.453125 L 8.234375 -17.453125 C 10.484375 -17.453125 12.125 -17.046875 13.15625 -16.234375 C 14.195312 -15.429688 14.71875 -14.109375 14.71875 -12.265625 C 14.71875 -10.773438 14.40625 -9.585938 13.78125 -8.703125 C 13.15625 -7.828125 12.265625 -7.269531 11.109375 -7.03125 L 15.78125 0 Z M 11.109375 -12.125 C 11.109375 -13.007812 10.882812 -13.601562 10.4375 -13.90625 C 9.988281 -14.207031 9.242188 -14.359375 8.203125 -14.359375 L 5.453125 -14.359375 L 5.453125 -9.703125 L 8.0625 -9.703125 C 8.851562 -9.703125 9.460938 -9.78125 9.890625 -9.9375 C 10.328125 -10.09375 10.640625 -10.328125 10.828125 -10.640625 C 11.015625 -10.960938 11.109375 -11.457031 11.109375 -12.125 Z M 11.109375 -12.125 "/></g></g></g><g fill="#474947" fill-opacity="1"><g transform="translate(281.150578, 695.348075)"><g><path d="M 4.515625 -5.765625 C 4.578125 -4.585938 4.863281 -3.738281 5.375 -3.21875 C 5.882812 -2.707031 6.691406 -2.453125 7.796875 -2.453125 C 8.429688 -2.453125 8.988281 -2.53125 9.46875 -2.6875 C 9.957031 -2.851562 10.382812 -3.164062 10.75 -3.625 L 13.171875 -1.890625 C 12.640625 -1.128906 11.953125 -0.554688 11.109375 -0.171875 C 10.265625 0.203125 9.109375 0.390625 7.640625 0.390625 C 5.460938 0.390625 3.835938 -0.179688 2.765625 -1.328125 C 1.691406 -2.472656 1.15625 -4.195312 1.15625 -6.5 C 1.15625 -11.238281 3.273438 -13.609375 7.515625 -13.609375 C 9.398438 -13.609375 10.835938 -13.078125 11.828125 -12.015625 C 12.816406 -10.953125 13.3125 -9.398438 13.3125 -7.359375 L 13.3125 -5.765625 Z M 10.078125 -8.015625 C 10.078125 -10.015625 9.195312 -11.015625 7.4375 -11.015625 C 6.863281 -11.015625 6.390625 -10.914062 6.015625 -10.71875 C 5.640625 -10.519531 5.34375 -10.222656 5.125 -9.828125 C 4.90625 -9.441406 4.734375 -8.835938 4.609375 -8.015625 Z M 10.078125 -8.015625 "/></g></g></g><g fill="#474947" fill-opacity="1"><g transform="translate(295.563093, 695.348075)"><g><path d="M 12.765625 -1.890625 C 12.253906 -1.140625 11.585938 -0.570312 10.765625 -0.1875 C 9.941406 0.195312 8.898438 0.390625 7.640625 0.390625 C 5.503906 0.390625 3.890625 -0.191406 2.796875 -1.359375 C 1.703125 -2.523438 1.15625 -4.25 1.15625 -6.53125 C 1.15625 -8.757812 1.6875 -10.492188 2.75 -11.734375 C 3.8125 -12.984375 5.398438 -13.609375 7.515625 -13.609375 C 8.648438 -13.609375 9.660156 -13.421875 10.546875 -13.046875 C 11.429688 -12.679688 12.109375 -12.113281 12.578125 -11.34375 L 10.15625 -9.609375 C 9.851562 -10.003906 9.503906 -10.296875 9.109375 -10.484375 C 8.722656 -10.671875 8.21875 -10.765625 7.59375 -10.765625 C 6.476562 -10.765625 5.6875 -10.425781 5.21875 -9.75 C 4.75 -9.070312 4.515625 -8.015625 4.515625 -6.578125 C 4.515625 -5.148438 4.753906 -4.101562 5.234375 -3.4375 C 5.722656 -2.78125 6.550781 -2.453125 7.71875 -2.453125 C 8.21875 -2.453125 8.675781 -2.523438 9.09375 -2.671875 C 9.519531 -2.816406 9.921875 -3.132812 10.296875 -3.625 Z M 12.765625 -1.890625 "/></g></g></g><g fill="#474947" fill-opacity="1"><g transform="translate(308.916421, 695.348075)"><g><path d="M 9.8125 -10.046875 C 9.476562 -10.210938 9.03125 -10.296875 8.46875 -10.296875 C 7.863281 -10.296875 7.289062 -10.148438 6.75 -9.859375 C 6.207031 -9.578125 5.648438 -9.15625 5.078125 -8.59375 L 5.078125 0 L 1.828125 0 L 1.828125 -13.234375 L 5.078125 -13.234375 L 5.078125 -11.34375 C 5.640625 -11.945312 6.238281 -12.445312 6.875 -12.84375 C 7.507812 -13.238281 8.222656 -13.4375 9.015625 -13.4375 C 9.691406 -13.4375 10.171875 -13.347656 10.453125 -13.171875 Z M 9.8125 -10.046875 "/></g></g></g><g fill="#474947" fill-opacity="1"><g transform="translate(319.508295, 695.348075)"><g><path d="M 10.25 0 L 10.25 -1.703125 C 9.675781 -1.085938 8.972656 -0.582031 8.140625 -0.1875 C 7.316406 0.195312 6.523438 0.390625 5.765625 0.390625 C 4.265625 0.390625 3.21875 -0.0195312 2.625 -0.84375 C 2.03125 -1.675781 1.734375 -2.859375 1.734375 -4.390625 L 1.734375 -13.234375 L 4.984375 -13.234375 L 4.984375 -5.9375 C 4.984375 -5.007812 5.035156 -4.296875 5.140625 -3.796875 C 5.253906 -3.296875 5.429688 -2.953125 5.671875 -2.765625 C 5.921875 -2.578125 6.285156 -2.484375 6.765625 -2.484375 C 7.734375 -2.484375 8.894531 -3.117188 10.25 -4.390625 L 10.25 -13.234375 L 13.5 -13.234375 L 13.5 0 Z M 10.25 0 "/></g></g></g><g fill="#474947" fill-opacity="1"><g transform="translate(334.853904, 695.348075)"><g><path d="M 5.265625 -16.84375 C 5.265625 -16.226562 5.113281 -15.796875 4.8125 -15.546875 C 4.507812 -15.304688 4.050781 -15.1875 3.4375 -15.1875 C 2.738281 -15.1875 2.265625 -15.328125 2.015625 -15.609375 C 1.773438 -15.898438 1.65625 -16.3125 1.65625 -16.84375 C 1.65625 -17.425781 1.785156 -17.84375 2.046875 -18.09375 C 2.316406 -18.351562 2.78125 -18.484375 3.4375 -18.484375 C 4.082031 -18.484375 4.546875 -18.359375 4.828125 -18.109375 C 5.117188 -17.867188 5.265625 -17.445312 5.265625 -16.84375 Z M 1.828125 0 L 1.828125 -13.234375 L 5.078125 -13.234375 L 5.078125 0 Z M 1.828125 0 "/></g></g></g><g fill="#474947" fill-opacity="1"><g transform="translate(341.776451, 695.348075)"><g><path d="M 9.140625 0 C 8.265625 0.257812 7.34375 0.390625 6.375 0.390625 C 4.851562 0.390625 3.753906 0.046875 3.078125 -0.640625 C 2.398438 -1.328125 2.0625 -2.445312 2.0625 -4 L 2.0625 -10.640625 L 0.390625 -10.640625 L 0.390625 -13.234375 L 2.0625 -13.234375 L 2.0625 -16.90625 L 5.328125 -16.90625 L 5.328125 -13.234375 L 8.40625 -13.234375 L 8.40625 -10.640625 L 5.328125 -10.640625 L 5.328125 -4.40625 C 5.328125 -3.582031 5.453125 -3.023438 5.703125 -2.734375 C 5.960938 -2.441406 6.328125 -2.296875 6.796875 -2.296875 C 7.390625 -2.296875 7.984375 -2.414062 8.578125 -2.65625 Z M 9.140625 0 "/></g></g></g><g fill="#474947" fill-opacity="1"><g transform="translate(351.094779, 695.348075)"><g><path d="M 17.59375 0 L 17.59375 -7.796875 C 17.59375 -8.578125 17.546875 -9.1875 17.453125 -9.625 C 17.359375 -10.0625 17.21875 -10.359375 17.03125 -10.515625 C 16.84375 -10.671875 16.53125 -10.75 16.09375 -10.75 C 15.59375 -10.75 15.066406 -10.5625 14.515625 -10.1875 C 13.960938 -9.820312 13.445312 -9.367188 12.96875 -8.828125 L 12.96875 0 L 9.703125 0 L 9.703125 -7.796875 C 9.703125 -8.648438 9.664062 -9.269531 9.59375 -9.65625 C 9.519531 -10.039062 9.382812 -10.316406 9.1875 -10.484375 C 9 -10.660156 8.671875 -10.75 8.203125 -10.75 C 7.804688 -10.75 7.34375 -10.59375 6.8125 -10.28125 C 6.28125 -9.976562 5.703125 -9.492188 5.078125 -8.828125 L 5.078125 0 L 1.828125 0 L 1.828125 -13.234375 L 5.078125 -13.234375 L 5.078125 -11.515625 C 5.679688 -12.171875 6.316406 -12.679688 6.984375 -13.046875 C 7.648438 -13.421875 8.382812 -13.609375 9.1875 -13.609375 C 10.289062 -13.609375 11.101562 -13.414062 11.625 -13.03125 C 12.15625 -12.65625 12.519531 -12.097656 12.71875 -11.359375 C 13.46875 -12.117188 14.171875 -12.679688 14.828125 -13.046875 C 15.492188 -13.421875 16.269531 -13.609375 17.15625 -13.609375 C 18.4375 -13.609375 19.367188 -13.238281 19.953125 -12.5 C 20.546875 -11.769531 20.84375 -10.546875 20.84375 -8.828125 L 20.84375 0 Z M 17.59375 0 "/></g></g></g><g fill="#474947" fill-opacity="1"><g transform="translate(373.665559, 695.348075)"><g><path d="M 4.515625 -5.765625 C 4.578125 -4.585938 4.863281 -3.738281 5.375 -3.21875 C 5.882812 -2.707031 6.691406 -2.453125 7.796875 -2.453125 C 8.429688 -2.453125 8.988281 -2.53125 9.46875 -2.6875 C 9.957031 -2.851562 10.382812 -3.164062 10.75 -3.625 L 13.171875 -1.890625 C 12.640625 -1.128906 11.953125 -0.554688 11.109375 -0.171875 C 10.265625 0.203125 9.109375 0.390625 7.640625 0.390625 C 5.460938 0.390625 3.835938 -0.179688 2.765625 -1.328125 C 1.691406 -2.472656 1.15625 -4.195312 1.15625 -6.5 C 1.15625 -11.238281 3.273438 -13.609375 7.515625 -13.609375 C 9.398438 -13.609375 10.835938 -13.078125 11.828125 -12.015625 C 12.816406 -10.953125 13.3125 -9.398438 13.3125 -7.359375 L 13.3125 -5.765625 Z M 10.078125 -8.015625 C 10.078125 -10.015625 9.195312 -11.015625 7.4375 -11.015625 C 6.863281 -11.015625 6.390625 -10.914062 6.015625 -10.71875 C 5.640625 -10.519531 5.34375 -10.222656 5.125 -9.828125 C 4.90625 -9.441406 4.734375 -8.835938 4.609375 -8.015625 Z M 10.078125 -8.015625 "/></g></g></g><g fill="#474947" fill-opacity="1"><g transform="translate(388.078074, 695.348075)"><g><path d="M 10.359375 0 L 10.359375 -7.296875 C 10.359375 -8.671875 10.234375 -9.585938 9.984375 -10.046875 C 9.734375 -10.515625 9.265625 -10.75 8.578125 -10.75 C 7.609375 -10.75 6.441406 -10.109375 5.078125 -8.828125 L 5.078125 0 L 1.828125 0 L 1.828125 -13.234375 L 5.078125 -13.234375 L 5.078125 -11.515625 C 5.765625 -12.203125 6.5 -12.722656 7.28125 -13.078125 C 8.070312 -13.429688 8.835938 -13.609375 9.578125 -13.609375 C 10.929688 -13.609375 11.941406 -13.238281 12.609375 -12.5 C 13.273438 -11.757812 13.609375 -10.535156 13.609375 -8.828125 L 13.609375 0 Z M 10.359375 0 "/></g></g></g><g fill="#474947" fill-opacity="1"><g transform="translate(403.423683, 695.348075)"><g><path d="M 9.140625 0 C 8.265625 0.257812 7.34375 0.390625 6.375 0.390625 C 4.851562 0.390625 3.753906 0.046875 3.078125 -0.640625 C 2.398438 -1.328125 2.0625 -2.445312 2.0625 -4 L 2.0625 -10.640625 L 0.390625 -10.640625 L 0.390625 -13.234375 L 2.0625 -13.234375 L 2.0625 -16.90625 L 5.328125 -16.90625 L 5.328125 -13.234375 L 8.40625 -13.234375 L 8.40625 -10.640625 L 5.328125 -10.640625 L 5.328125 -4.40625 C 5.328125 -3.582031 5.453125 -3.023438 5.703125 -2.734375 C 5.960938 -2.441406 6.328125 -2.296875 6.796875 -2.296875 C 7.390625 -2.296875 7.984375 -2.414062 8.578125 -2.65625 Z M 9.140625 0 "/></g></g></g><g fill="#474947" fill-opacity="1"><g transform="translate(412.742011, 695.348075)"><g/></g></g><g fill="#474947" fill-opacity="1"><g transform="translate(418.945823, 695.348075)"><g><path d="M 0.34375 0 L 6.109375 -17.453125 L 10.75 -17.453125 L 16.53125 0 L 12.890625 0 L 11.734375 -3.546875 L 5 -3.546875 L 3.875 0 Z M 6.015625 -6.65625 L 10.71875 -6.65625 L 8.375 -13.875 Z M 6.015625 -6.65625 "/></g></g></g><g fill="#474947" fill-opacity="1"><g transform="translate(435.804557, 695.348075)"><g><path d="M 13.5 -0.25 C 13.5 1.507812 12.957031 2.820312 11.875 3.6875 C 10.789062 4.550781 9.050781 4.984375 6.65625 4.984375 C 4.675781 4.984375 2.945312 4.601562 1.46875 3.84375 L 2.4375 1.1875 C 3.800781 1.820312 5.207031 2.140625 6.65625 2.140625 C 8 2.140625 8.929688 1.945312 9.453125 1.5625 C 9.984375 1.175781 10.25 0.523438 10.25 -0.390625 L 10.25 -1.46875 C 9.175781 -0.488281 7.878906 0 6.359375 0 C 4.742188 0 3.472656 -0.578125 2.546875 -1.734375 C 1.617188 -2.898438 1.15625 -4.570312 1.15625 -6.75 C 1.15625 -8.113281 1.367188 -9.3125 1.796875 -10.34375 C 2.234375 -11.382812 2.867188 -12.1875 3.703125 -12.75 C 4.546875 -13.320312 5.5625 -13.609375 6.75 -13.609375 C 7.445312 -13.609375 8.144531 -13.453125 8.84375 -13.140625 C 9.539062 -12.835938 10.125 -12.453125 10.59375 -11.984375 L 11.015625 -13.234375 L 13.5 -13.234375 Z M 10.25 -9.5625 C 9.363281 -10.351562 8.394531 -10.75 7.34375 -10.75 C 6.550781 -10.75 5.878906 -10.382812 5.328125 -9.65625 C 4.785156 -8.9375 4.515625 -7.984375 4.515625 -6.796875 C 4.515625 -5.453125 4.753906 -4.457031 5.234375 -3.8125 C 5.722656 -3.175781 6.351562 -2.859375 7.125 -2.859375 C 8.195312 -2.859375 9.238281 -3.289062 10.25 -4.15625 Z M 10.25 -9.5625 "/></g></g></g><g fill="#474947" fill-opacity="1"><g transform="translate(451.150166, 695.348075)"><g><path d="M 4.515625 -5.765625 C 4.578125 -4.585938 4.863281 -3.738281 5.375 -3.21875 C 5.882812 -2.707031 6.691406 -2.453125 7.796875 -2.453125 C 8.429688 -2.453125 8.988281 -2.53125 9.46875 -2.6875 C 9.957031 -2.851562 10.382812 -3.164062 10.75 -3.625 L 13.171875 -1.890625 C 12.640625 -1.128906 11.953125 -0.554688 11.109375 -0.171875 C 10.265625 0.203125 9.109375 0.390625 7.640625 0.390625 C 5.460938 0.390625 3.835938 -0.179688 2.765625 -1.328125 C 1.691406 -2.472656 1.15625 -4.195312 1.15625 -6.5 C 1.15625 -11.238281 3.273438 -13.609375 7.515625 -13.609375 C 9.398438 -13.609375 10.835938 -13.078125 11.828125 -12.015625 C 12.816406 -10.953125 13.3125 -9.398438 13.3125 -7.359375 L 13.3125 -5.765625 Z M 10.078125 -8.015625 C 10.078125 -10.015625 9.195312 -11.015625 7.4375 -11.015625 C 6.863281 -11.015625 6.390625 -10.914062 6.015625 -10.71875 C 5.640625 -10.519531 5.34375 -10.222656 5.125 -9.828125 C 4.90625 -9.441406 4.734375 -8.835938 4.609375 -8.015625 Z M 10.078125 -8.015625 "/></g></g></g><g fill="#474947" fill-opacity="1"><g transform="translate(465.562681, 695.348075)"><g><path d="M 10.359375 0 L 10.359375 -7.296875 C 10.359375 -8.671875 10.234375 -9.585938 9.984375 -10.046875 C 9.734375 -10.515625 9.265625 -10.75 8.578125 -10.75 C 7.609375 -10.75 6.441406 -10.109375 5.078125 -8.828125 L 5.078125 0 L 1.828125 0 L 1.828125 -13.234375 L 5.078125 -13.234375 L 5.078125 -11.515625 C 5.765625 -12.203125 6.5 -12.722656 7.28125 -13.078125 C 8.070312 -13.429688 8.835938 -13.609375 9.578125 -13.609375 C 10.929688 -13.609375 11.941406 -13.238281 12.609375 -12.5 C 13.273438 -11.757812 13.609375 -10.535156 13.609375 -8.828125 L 13.609375 0 Z M 10.359375 0 "/></g></g></g><g fill="#474947" fill-opacity="1"><g transform="translate(480.90829, 695.348075)"><g><path d="M 12.765625 -1.890625 C 12.253906 -1.140625 11.585938 -0.570312 10.765625 -0.1875 C 9.941406 0.195312 8.898438 0.390625 7.640625 0.390625 C 5.503906 0.390625 3.890625 -0.191406 2.796875 -1.359375 C 1.703125 -2.523438 1.15625 -4.25 1.15625 -6.53125 C 1.15625 -8.757812 1.6875 -10.492188 2.75 -11.734375 C 3.8125 -12.984375 5.398438 -13.609375 7.515625 -13.609375 C 8.648438 -13.609375 9.660156 -13.421875 10.546875 -13.046875 C 11.429688 -12.679688 12.109375 -12.113281 12.578125 -11.34375 L 10.15625 -9.609375 C 9.851562 -10.003906 9.503906 -10.296875 9.109375 -10.484375 C 8.722656 -10.671875 8.21875 -10.765625 7.59375 -10.765625 C 6.476562 -10.765625 5.6875 -10.425781 5.21875 -9.75 C 4.75 -9.070312 4.515625 -8.015625 4.515625 -6.578125 C 4.515625 -5.148438 4.753906 -4.101562 5.234375 -3.4375 C 5.722656 -2.78125 6.550781 -2.453125 7.71875 -2.453125 C 8.21875 -2.453125 8.675781 -2.523438 9.09375 -2.671875 C 9.519531 -2.816406 9.921875 -3.132812 10.296875 -3.625 Z M 12.765625 -1.890625 "/></g></g></g><g fill="#474947" fill-opacity="1"><g transform="translate(494.261618, 695.348075)"><g><path d="M 0.4375 1.78125 C 1.144531 2.019531 1.78125 2.140625 2.34375 2.140625 C 2.832031 2.140625 3.257812 1.992188 3.625 1.703125 C 4 1.410156 4.382812 0.800781 4.78125 -0.125 L 5.125 -0.90625 L 0.34375 -13.234375 L 3.71875 -13.234375 L 6.84375 -4.78125 L 10.046875 -13.234375 L 13.359375 -13.234375 L 7.671875 0.90625 C 7.203125 2.039062 6.75 2.878906 6.3125 3.421875 C 5.875 3.972656 5.363281 4.367188 4.78125 4.609375 C 4.195312 4.859375 3.460938 4.984375 2.578125 4.984375 C 1.617188 4.984375 0.675781 4.859375 -0.25 4.609375 Z M 0.4375 1.78125 "/></g></g></g><g fill="#474947" fill-opacity="1"><g transform="translate(507.942789, 695.348075)"><g/></g></g><g fill="#474947" fill-opacity="1"><g transform="translate(514.146601, 695.348075)"><g><path d="M 14.640625 -11.609375 C 14.640625 -9.503906 14.144531 -7.941406 13.15625 -6.921875 C 12.164062 -5.898438 10.5625 -5.390625 8.34375 -5.390625 L 5.453125 -5.390625 L 5.453125 0 L 1.890625 0 L 1.890625 -17.453125 L 8.453125 -17.453125 C 10.421875 -17.453125 11.941406 -16.988281 13.015625 -16.0625 C 14.097656 -15.144531 14.640625 -13.660156 14.640625 -11.609375 Z M 10.96875 -11.578125 C 10.96875 -12.554688 10.695312 -13.265625 10.15625 -13.703125 C 9.613281 -14.140625 8.632812 -14.359375 7.21875 -14.359375 L 5.453125 -14.359375 L 5.453125 -8.5 L 6.890625 -8.5 C 8.203125 -8.5 9.109375 -8.585938 9.609375 -8.765625 C 10.109375 -8.953125 10.457031 -9.257812 10.65625 -9.6875 C 10.863281 -10.113281 10.96875 -10.742188 10.96875 -11.578125 Z M 10.96875 -11.578125 "/></g></g></g><g fill="#474947" fill-opacity="1"><g transform="translate(529.769616, 695.348075)"><g><path d="M 1.828125 0 L 1.828125 -18.78125 L 5.078125 -18.78125 L 5.078125 0 Z M 1.828125 0 "/></g></g></g><g fill="#474947" fill-opacity="1"><g transform="translate(536.692163, 695.348075)"><g><path d="M 9.640625 0 L 9.640625 -1.375 C 8.347656 -0.195312 6.96875 0.390625 5.5 0.390625 C 4.03125 0.390625 2.921875 0.00390625 2.171875 -0.765625 C 1.429688 -1.535156 1.0625 -2.519531 1.0625 -3.71875 C 1.0625 -4.664062 1.25 -5.441406 1.625 -6.046875 C 2.007812 -6.660156 2.578125 -7.140625 3.328125 -7.484375 C 4.085938 -7.835938 5.171875 -8.085938 6.578125 -8.234375 L 9.375 -8.5 L 9.375 -9.09375 C 9.375 -9.832031 9.148438 -10.335938 8.703125 -10.609375 C 8.253906 -10.878906 7.601562 -11.015625 6.75 -11.015625 C 6.039062 -11.015625 5.429688 -10.894531 4.921875 -10.65625 C 4.410156 -10.425781 4.035156 -10.09375 3.796875 -9.65625 L 1.265625 -11.28125 C 1.703125 -12.03125 2.394531 -12.601562 3.34375 -13 C 4.300781 -13.40625 5.453125 -13.609375 6.796875 -13.609375 C 8.859375 -13.609375 10.34375 -13.25 11.25 -12.53125 C 12.164062 -11.8125 12.625 -10.628906 12.625 -8.984375 L 12.625 0 Z M 9.375 -6.140625 L 7.71875 -5.984375 C 6.550781 -5.890625 5.707031 -5.671875 5.1875 -5.328125 C 4.664062 -4.984375 4.40625 -4.460938 4.40625 -3.765625 C 4.40625 -3.160156 4.570312 -2.742188 4.90625 -2.515625 C 5.25 -2.296875 5.695312 -2.1875 6.25 -2.1875 C 6.644531 -2.1875 7.125 -2.3125 7.6875 -2.5625 C 8.257812 -2.8125 8.820312 -3.164062 9.375 -3.625 Z M 9.375 -6.140625 "/></g></g></g><g fill="#474947" fill-opacity="1"><g transform="translate(551.054241, 695.348075)"><g><path d="M 9.140625 0 C 8.265625 0.257812 7.34375 0.390625 6.375 0.390625 C 4.851562 0.390625 3.753906 0.046875 3.078125 -0.640625 C 2.398438 -1.328125 2.0625 -2.445312 2.0625 -4 L 2.0625 -10.640625 L 0.390625 -10.640625 L 0.390625 -13.234375 L 2.0625 -13.234375 L 2.0625 -16.90625 L 5.328125 -16.90625 L 5.328125 -13.234375 L 8.40625 -13.234375 L 8.40625 -10.640625 L 5.328125 -10.640625 L 5.328125 -4.40625 C 5.328125 -3.582031 5.453125 -3.023438 5.703125 -2.734375 C 5.960938 -2.441406 6.328125 -2.296875 6.796875 -2.296875 C 7.390625 -2.296875 7.984375 -2.414062 8.578125 -2.65625 Z M 9.140625 0 "/></g></g></g><g fill="#474947" fill-opacity="1"><g transform="translate(560.372569, 695.348075)"><g><path d="M 8.796875 -16.015625 C 8.191406 -16.210938 7.609375 -16.3125 7.046875 -16.3125 C 6.410156 -16.3125 5.972656 -16.179688 5.734375 -15.921875 C 5.492188 -15.660156 5.375 -15.191406 5.375 -14.515625 L 5.375 -13.234375 L 8.0625 -13.234375 L 8.0625 -10.640625 L 5.375 -10.640625 L 5.375 0 L 2.125 0 L 2.125 -10.640625 L 0.4375 -10.640625 L 0.4375 -13.234375 L 2.125 -13.234375 L 2.125 -14.515625 C 2.125 -16.148438 2.523438 -17.332031 3.328125 -18.0625 C 4.140625 -18.800781 5.363281 -19.171875 7 -19.171875 C 7.757812 -19.171875 8.570312 -19.066406 9.4375 -18.859375 Z M 8.796875 -16.015625 "/></g></g></g><g fill="#474947" fill-opacity="1"><g transform="translate(568.682146, 695.348075)"><g><path d="M 13.84375 -6.578125 C 13.84375 -4.378906 13.332031 -2.664062 12.3125 -1.4375 C 11.300781 -0.21875 9.703125 0.390625 7.515625 0.390625 C 3.273438 0.390625 1.15625 -1.929688 1.15625 -6.578125 C 1.15625 -8.816406 1.664062 -10.546875 2.6875 -11.765625 C 3.707031 -12.992188 5.316406 -13.609375 7.515625 -13.609375 C 9.703125 -13.609375 11.300781 -12.992188 12.3125 -11.765625 C 13.332031 -10.546875 13.84375 -8.816406 13.84375 -6.578125 Z M 10.484375 -6.578125 C 10.484375 -8.035156 10.253906 -9.097656 9.796875 -9.765625 C 9.347656 -10.429688 8.585938 -10.765625 7.515625 -10.765625 C 6.453125 -10.765625 5.6875 -10.421875 5.21875 -9.734375 C 4.75 -9.054688 4.515625 -8.003906 4.515625 -6.578125 C 4.515625 -5.171875 4.75 -4.128906 5.21875 -3.453125 C 5.6875 -2.785156 6.453125 -2.453125 7.515625 -2.453125 C 8.566406 -2.453125 9.320312 -2.78125 9.78125 -3.4375 C 10.25 -4.101562 10.484375 -5.148438 10.484375 -6.578125 Z M 10.484375 -6.578125 "/></g></g></g><g fill="#474947" fill-opacity="1"><g transform="translate(583.687302, 695.348075)"><g><path d="M 9.8125 -10.046875 C 9.476562 -10.210938 9.03125 -10.296875 8.46875 -10.296875 C 7.863281 -10.296875 7.289062 -10.148438 6.75 -9.859375 C 6.207031 -9.578125 5.648438 -9.15625 5.078125 -8.59375 L 5.078125 0 L 1.828125 0 L 1.828125 -13.234375 L 5.078125 -13.234375 L 5.078125 -11.34375 C 5.640625 -11.945312 6.238281 -12.445312 6.875 -12.84375 C 7.507812 -13.238281 8.222656 -13.4375 9.015625 -13.4375 C 9.691406 -13.4375 10.171875 -13.347656 10.453125 -13.171875 Z M 9.8125 -10.046875 "/></g></g></g><g fill="#474947" fill-opacity="1"><g transform="translate(594.279177, 695.348075)"><g><path d="M 17.59375 0 L 17.59375 -7.796875 C 17.59375 -8.578125 17.546875 -9.1875 17.453125 -9.625 C 17.359375 -10.0625 17.21875 -10.359375 17.03125 -10.515625 C 16.84375 -10.671875 16.53125 -10.75 16.09375 -10.75 C 15.59375 -10.75 15.066406 -10.5625 14.515625 -10.1875 C 13.960938 -9.820312 13.445312 -9.367188 12.96875 -8.828125 L 12.96875 0 L 9.703125 0 L 9.703125 -7.796875 C 9.703125 -8.648438 9.664062 -9.269531 9.59375 -9.65625 C 9.519531 -10.039062 9.382812 -10.316406 9.1875 -10.484375 C 9 -10.660156 8.671875 -10.75 8.203125 -10.75 C 7.804688 -10.75 7.34375 -10.59375 6.8125 -10.28125 C 6.28125 -9.976562 5.703125 -9.492188 5.078125 -8.828125 L 5.078125 0 L 1.828125 0 L 1.828125 -13.234375 L 5.078125 -13.234375 L 5.078125 -11.515625 C 5.679688 -12.171875 6.316406 -12.679688 6.984375 -13.046875 C 7.648438 -13.421875 8.382812 -13.609375 9.1875 -13.609375 C 10.289062 -13.609375 11.101562 -13.414062 11.625 -13.03125 C 12.15625 -12.65625 12.519531 -12.097656 12.71875 -11.359375 C 13.46875 -12.117188 14.171875 -12.679688 14.828125 -13.046875 C 15.492188 -13.421875 16.269531 -13.609375 17.15625 -13.609375 C 18.4375 -13.609375 19.367188 -13.238281 19.953125 -12.5 C 20.546875 -11.769531 20.84375 -10.546875 20.84375 -8.828125 L 20.84375 0 Z M 17.59375 0 "/></g></g></g></svg>